<?xml version="1.0" encoding="UTF-8"?>
<svg xmlns="http://www.w3.org/2000/svg" width="1700" height="920" viewBox="0 0 1700 920" font-family="Microsoft YaHei, PingFang SC, Noto Sans CJK SC, sans-serif">
  <defs>
    <linearGradient id="bgGradient" x1="0" y1="0" x2="0" y2="1">
      <stop offset="0%" stop-color="#0f172a" />
      <stop offset="100%" stop-color="#1e293b" />
    </linearGradient>
    <marker id="arrowhead" markerWidth="10" markerHeight="10" refX="9" refY="3" orient="auto" markerUnits="strokeWidth">
      <path d="M0,0 L9,3 L0,6 Z" fill="#64748b" />
    </marker>
  </defs>
<rect width="1700" height="920" fill="url(#bgGradient)" />
  <text x="850.0" y="30" text-anchor="middle" font-size="20" font-weight="bold" fill="#f1f5f9">C/S 远程控制架构：APK 客户端 → PC 服务端 → smalltools/CodeBuddy/adb 执行器</text>
  <text x="60" y="102" font-size="11" font-weight="bold" fill="#475569">Layer 0</text>
  <text x="380" y="102" font-size="11" font-weight="bold" fill="#475569">Layer 1</text>
  <text x="700" y="102" font-size="11" font-weight="bold" fill="#475569">Layer 2</text>
  <text x="1020" y="102" font-size="11" font-weight="bold" fill="#475569">Layer 3</text>
  <text x="1340" y="102" font-size="11" font-weight="bold" fill="#475569">Layer 4</text>
  <g id="edges">
  <path d="M 260.0,155.0 C 340.0,155.0 -20.0,285.0 60.0,285.0" fill="none" stroke="#64748b" stroke-width="2" marker-end="url(#arrowhead)" opacity="0.75" />
  <path d="M 260.0,285.0 C 340.0,285.0 -20.0,415.0 60.0,415.0" fill="none" stroke="#64748b" stroke-width="2" marker-end="url(#arrowhead)" opacity="0.75" />
  <path d="M 260.0,415.0 C 340.0,415.0 -20.0,545.0 60.0,545.0" fill="none" stroke="#64748b" stroke-width="2" marker-end="url(#arrowhead)" opacity="0.75" />
  <path d="M 260.0,545.0 C 308.0,545.0 332.0,155.0 380.0,155.0" fill="none" stroke="#64748b" stroke-width="2" marker-end="url(#arrowhead)" opacity="0.75" />
  <path d="M 580.0,155.0 C 628.0,155.0 652.0,155.0 700.0,155.0" fill="none" stroke="#64748b" stroke-width="2" marker-end="url(#arrowhead)" opacity="0.75" />
  <path d="M 900.0,155.0 C 1108.0,155.0 172.0,155.0 380.0,155.0" fill="none" stroke="#64748b" stroke-width="2" marker-end="url(#arrowhead)" opacity="0.75" />
  <path d="M 900.0,155.0 C 980.0,155.0 620.0,285.0 700.0,285.0" fill="none" stroke="#64748b" stroke-width="2" marker-end="url(#arrowhead)" opacity="0.75" />
  <path d="M 900.0,285.0 C 980.0,285.0 620.0,415.0 700.0,415.0" fill="none" stroke="#64748b" stroke-width="2" marker-end="url(#arrowhead)" opacity="0.75" />
  <path d="M 900.0,285.0 C 980.0,285.0 620.0,545.0 700.0,545.0" fill="none" stroke="#64748b" stroke-width="2" marker-end="url(#arrowhead)" opacity="0.75" />
  <path d="M 900.0,415.0 C 980.0,415.0 620.0,675.0 700.0,675.0" fill="none" stroke="#64748b" stroke-width="2" marker-end="url(#arrowhead)" opacity="0.75" />
  <path d="M 900.0,415.0 C 948.0,415.0 972.0,155.0 1020.0,155.0" fill="none" stroke="#64748b" stroke-width="2" marker-end="url(#arrowhead)" opacity="0.75" />
  <path d="M 900.0,415.0 C 948.0,415.0 972.0,285.0 1020.0,285.0" fill="none" stroke="#64748b" stroke-width="2" marker-end="url(#arrowhead)" opacity="0.75" />
  <path d="M 900.0,415.0 C 948.0,415.0 972.0,415.0 1020.0,415.0" fill="none" stroke="#64748b" stroke-width="2" marker-end="url(#arrowhead)" opacity="0.75" />
  <path d="M 1220.0,155.0 C 1268.0,155.0 1292.0,155.0 1340.0,155.0" fill="none" stroke="#64748b" stroke-width="2" marker-end="url(#arrowhead)" opacity="0.75" />
  <path d="M 1220.0,285.0 C 1268.0,285.0 1292.0,155.0 1340.0,155.0" fill="none" stroke="#64748b" stroke-width="2" marker-end="url(#arrowhead)" opacity="0.75" />
  <path d="M 1540.0,155.0 C 1620.0,155.0 1260.0,285.0 1340.0,285.0" fill="none" stroke="#64748b" stroke-width="2" marker-end="url(#arrowhead)" opacity="0.75" />
  <path d="M 1540.0,285.0 C 2132.0,285.0 -532.0,155.0 60.0,155.0" fill="none" stroke="#64748b" stroke-width="2" marker-end="url(#arrowhead)" opacity="0.75" />
  <path d="M 1220.0,415.0 C 1684.0,415.0 -404.0,285.0 60.0,285.0" fill="none" stroke="#64748b" stroke-width="2" marker-end="url(#arrowhead)" opacity="0.75" />
  </g>
  <g id="nodes">
  <rect x="60" y="120" width="200" height="70" rx="8" ry="8" fill="#D97706" fill-opacity="0.85" stroke="#D97706" stroke-width="2" />
  <text x="160.0" y="144" text-anchor="middle" font-size="14" font-weight="bold" fill="#ffffff">量化工作台
PcCandidatesDialog</text>
  <text x="160.0" y="180" text-anchor="middle" font-size="8" fill="#94a3b8">apk_bench</text>
  <rect x="60" y="250" width="200" height="70" rx="8" ry="8" fill="#6B7280" fill-opacity="0.85" stroke="#6B7280" stroke-width="2" />
  <text x="160.0" y="274" text-anchor="middle" font-size="14" font-weight="bold" fill="#ffffff">📡 远程面板
RemoteControlPanel/Dialog</text>
  <text x="160.0" y="310" text-anchor="middle" font-size="8" fill="#94a3b8">apk_dlg</text>
  <rect x="60" y="380" width="200" height="70" rx="8" ry="8" fill="#6B7280" fill-opacity="0.85" stroke="#6B7280" stroke-width="2" />
  <text x="160.0" y="404" text-anchor="middle" font-size="14" font-weight="bold" fill="#ffffff">PcBridgeClient.kt
业务 API（无地址概念）</text>
  <text x="160.0" y="440" text-anchor="middle" font-size="8" fill="#94a3b8">apk_client</text>
  <rect x="60" y="510" width="200" height="70" rx="8" ry="8" fill="#6B7280" fill-opacity="0.85" stroke="#6B7280" stroke-width="2" />
  <text x="160.0" y="534" text-anchor="middle" font-size="14" font-weight="bold" fill="#ffffff">CosRelayClient.kt
信封 + HMAC 元数据签名</text>
  <text x="160.0" y="570" text-anchor="middle" font-size="8" fill="#94a3b8">apk_relay</text>
  <rect x="380" y="120" width="200" height="70" rx="8" ry="8" fill="#6B7280" fill-opacity="0.85" stroke="#6B7280" stroke-width="2" />
  <text x="480.0" y="144" text-anchor="middle" font-size="14" font-weight="bold" fill="#ffffff">腾讯云 COS 中继
pc/inbox·pc/outbox/{deviceId}</text>
  <text x="480.0" y="180" text-anchor="middle" font-size="8" fill="#94a3b8">relay_cos</text>
  <rect x="700" y="120" width="200" height="70" rx="8" ry="8" fill="#4F46E5" fill-opacity="0.85" stroke="#4F46E5" stroke-width="2" />
  <text x="800.0" y="144" text-anchor="middle" font-size="14" font-weight="bold" fill="#ffffff">relay_worker.py
轮询 inbox → 本机 API → outbox</text>
  <text x="800.0" y="180" text-anchor="middle" font-size="8" fill="#94a3b8">svc_relay</text>
  <rect x="700" y="250" width="200" height="70" rx="8" ry="8" fill="#059669" fill-opacity="0.85" stroke="#059669" stroke-width="2" />
  <text x="800.0" y="274" text-anchor="middle" font-size="14" font-weight="bold" fill="#ffffff">data_service.py
ThreadingHTTPServer 127.0.0.1:8888</text>
  <text x="800.0" y="310" text-anchor="middle" font-size="8" fill="#94a3b8">svc_http</text>
  <rect x="700" y="380" width="200" height="70" rx="8" ry="8" fill="#4F46E5" fill-opacity="0.85" stroke="#4F46E5" stroke-width="2" />
  <text x="800.0" y="404" text-anchor="middle" font-size="14" font-weight="bold" fill="#ffffff">remote_control.py
RemoteControl 任务队列</text>
  <text x="800.0" y="440" text-anchor="middle" font-size="8" fill="#94a3b8">svc_rc</text>
  <rect x="700" y="510" width="200" height="70" rx="8" ry="8" fill="#DC2626" fill-opacity="0.85" stroke="#DC2626" stroke-width="2" />
  <text x="800.0" y="534" text-anchor="middle" font-size="14" font-weight="bold" fill="#ffffff">本机 API 鉴权
data/remote_token.txt（仅本机）</text>
  <text x="800.0" y="570" text-anchor="middle" font-size="8" fill="#94a3b8">svc_token</text>
  <rect x="700" y="640" width="200" height="70" rx="8" ry="8" fill="#059669" fill-opacity="0.85" stroke="#059669" stroke-width="2" />
  <text x="800.0" y="664" text-anchor="middle" font-size="14" font-weight="bold" fill="#ffffff">任务持久化
data/remote_tasks.json</text>
  <text x="800.0" y="700" text-anchor="middle" font-size="8" fill="#94a3b8">svc_store</text>
  <rect x="1020" y="120" width="200" height="70" rx="8" ry="8" fill="#7C3AED" fill-opacity="0.85" stroke="#7C3AED" stroke-width="2" />
  <text x="1120.0" y="144" text-anchor="middle" font-size="14" font-weight="bold" fill="#ffffff">smalltools 脚本
选股/回测/拟合/刷新/上传</text>
  <text x="1120.0" y="180" text-anchor="middle" font-size="8" fill="#94a3b8">ex_small</text>
  <rect x="1020" y="250" width="200" height="70" rx="8" ry="8" fill="#2563EB" fill-opacity="0.85" stroke="#2563EB" stroke-width="2" />
  <text x="1120.0" y="274" text-anchor="middle" font-size="14" font-weight="bold" fill="#ffffff">CodeBuddy CLI
codebuddy run &lt;prompt&gt;</text>
  <text x="1120.0" y="310" text-anchor="middle" font-size="8" fill="#94a3b8">ex_cb</text>
  <rect x="1020" y="380" width="200" height="70" rx="8" ry="8" fill="#6B7280" fill-opacity="0.85" stroke="#6B7280" stroke-width="2" />
  <text x="1120.0" y="404" text-anchor="middle" font-size="14" font-weight="bold" fill="#ffffff">adb 广播
触发 APK 刷新</text>
  <text x="1120.0" y="440" text-anchor="middle" font-size="8" fill="#94a3b8">ex_adb</text>
  <rect x="1340" y="120" width="200" height="70" rx="8" ry="8" fill="#4F46E5" fill-opacity="0.85" stroke="#4F46E5" stroke-width="2" />
  <text x="1440.0" y="144" text-anchor="middle" font-size="14" font-weight="bold" fill="#ffffff">candidates_quant.json
backtest_params.json</text>
  <text x="1440.0" y="180" text-anchor="middle" font-size="8" fill="#94a3b8">out_cand</text>
  <rect x="1340" y="250" width="200" height="70" rx="8" ry="8" fill="#059669" fill-opacity="0.85" stroke="#059669" stroke-width="2" />
  <text x="1440.0" y="274" text-anchor="middle" font-size="14" font-weight="bold" fill="#ffffff">COS
candidates/params/market_data.db</text>
  <text x="1440.0" y="310" text-anchor="middle" font-size="8" fill="#94a3b8">out_cos</text>
  </g>
  <g id="legend">
  <text x="40" y="830" font-size="12" font-weight="bold" fill="#94a3b8">圖例</text>
  <rect x="40.0" y="850" width="14" height="14" rx="3" fill="#059669" />
  <text x="60.0" y="862" font-size="11" fill="#94a3b8">數據源</text>
  <rect x="364.0" y="850" width="14" height="14" rx="3" fill="#7C3AED" />
  <text x="384.0" y="862" font-size="11" fill="#94a3b8">策略</text>
  <rect x="688.0" y="850" width="14" height="14" rx="3" fill="#DC2626" />
  <text x="708.0" y="862" font-size="11" fill="#94a3b8">過濾器</text>
  <rect x="1012.0" y="850" width="14" height="14" rx="3" fill="#2563EB" />
  <text x="1032.0" y="862" font-size="11" fill="#94a3b8">AI預測</text>
  <rect x="1336.0" y="850" width="14" height="14" rx="3" fill="#4F46E5" />
  <text x="1356.0" y="862" font-size="11" fill="#94a3b8">聚合</text>
  <rect x="40.0" y="878" width="14" height="14" rx="3" fill="#D97706" />
  <text x="60.0" y="890" font-size="11" fill="#94a3b8">交易動作</text>
  <rect x="364.0" y="878" width="14" height="14" rx="3" fill="#6B7280" />
  <text x="384.0" y="890" font-size="11" fill="#94a3b8">數據轉換</text>
  </g>
</svg>